<?xml version="1.0" encoding="UTF-8"?>
<svg version="1.1" xmlns="http://www.w3.org/2000/svg" width="464" height="464">
<path d="M0 0 C4.28452308 4.67493522 6.61398327 10.12208789 9.25 15.8125 C10.22007903 17.87820347 11.19144132 19.94330477 12.1640625 22.0078125 C12.64133789 23.02262695 13.11861328 24.03744141 13.61035156 25.08300781 C15.86141489 29.80818431 18.22488028 34.47570716 20.62597656 39.1262207 C22.15708572 42.13071539 23.17378724 44.69514894 24 48 C105.84 48 187.68 48 272 48 C273.15527192 97.6766925 273.15527192 97.6766925 273.1328125 120.546875 C273.13349055 123.09181731 273.13446467 125.63675956 273.13571167 128.18170166 C273.13715551 133.40353031 273.13513789 138.62534142 273.13037109 143.84716797 C273.12515157 149.85493529 273.12677687 155.86265924 273.1321975 161.87042308 C273.13728388 167.74859186 273.13674774 173.6267503 273.13381577 179.50492096 C273.13315208 181.97203832 273.13395524 184.43915655 273.13629532 186.90627289 C273.13883398 190.32002573 273.13496891 193.73371299 273.12939453 197.14746094 C273.13141876 198.14877548 273.13344299 199.15009003 273.13552856 200.18174744 C273.13129883 201.57965263 273.13129883 201.57965263 273.12698364 203.00579834 C273.12660662 203.80629482 273.12622959 204.60679131 273.12584114 205.43154526 C272.96868322 208.6391847 272.45417286 211.82078997 272 215 C182.24 215 92.48 215 0 215 C-0.185625 180.824375 -0.37125 146.64875 -0.5625 111.4375 C-0.62381104 100.64216553 -0.68512207 89.84683105 -0.74829102 78.72436523 C-0.81628418 65.55285645 -0.81628418 65.55285645 -0.8467865 59.3888092 C-0.86847016 55.07909909 -0.89306702 50.76941611 -0.91941833 46.45973206 C-0.95293401 40.96278082 -0.98148961 35.46582483 -1.00645053 29.96882832 C-1.01645724 27.95124065 -1.0282079 25.93366069 -1.0418998 23.91609466 C-1.06014852 21.19015063 -1.07201163 18.46425005 -1.08229065 15.73826599 C-1.08909316 14.94956651 -1.09589567 14.16086702 -1.10290432 13.34826756 C-1.11211665 8.79207091 -0.7530984 4.49533254 0 0 Z M193 81 C191.72336042 85.68101178 191.77425333 88.67943294 194 93 C194.66 93 195.32 93 196 93 C196 93.99 196 94.98 196 96 C194.88625 96.3403125 194.88625 96.3403125 193.75 96.6875 C190.26941769 98.34868701 188.92777747 99.64423922 187 103 C186.23688795 106.82969194 186.12987481 110.31680701 187.953125 113.84375 C190.49971218 117.13174864 192.97343483 119.08487155 197 120 C202.99400256 120.61163291 206.63582538 119.86920968 212 117 C214.0625 117.1875 214.0625 117.1875 216 118 C216.9075 118.350625 217.815 118.70125 218.75 119.0625 C219.4925 119.371875 220.235 119.68125 221 120 C222.32 118.02 223.64 116.04 225 114 C223.35 113.01 221.7 112.02 220 111 C220.53725895 107.62294375 221.11064623 104.303314 222 101 C219.69 100.67 217.38 100.34 215 100 C214.67 101.32 214.34 102.64 214 104 C213.34 104 212.68 104 212 104 C210.66666667 101.33333333 209.33333333 98.66666667 208 96 C209.175625 95.13375 209.175625 95.13375 210.375 94.25 C213.47873748 91.60639184 213.47873748 91.60639184 215 88 C215 83.85952184 214.25922884 82.30575709 211.5625 79.125 C208.02291876 76.48313864 204.6603784 76.33890154 200.34375 76.5859375 C196.84579428 77.20390968 195.20810521 78.22206119 193 81 Z M48 78 C48 91.53 48 105.06 48 119 C57.57 119 67.14 119 77 119 C77 117.02 77 115.04 77 113 C70.07 112.67 63.14 112.34 56 112 C55.67 100.78 55.34 89.56 55 78 C52.69 78 50.38 78 48 78 Z M153 82 C152.01666329 84.49675668 152.01666329 84.49675668 152 87 C152.33 87.66 152.66 88.32 153 89 C151.68 89 150.36 89 149 89 C148.7497843 91.91634129 148.7497843 91.91634129 149 95 C150.485 95.99 150.485 95.99 152 97 C152.36889648 98.90771484 152.36889648 98.90771484 152.37109375 101.2109375 C152.38849609 102.04367187 152.40589844 102.87640625 152.42382812 103.734375 C152.43290218 105.48696342 152.43814521 107.23957608 152.43945312 108.9921875 C152.50979968 114.1140862 152.50979968 114.1140862 154.80859375 118.58203125 C157.94139005 120.60913474 160.35245597 120.33773556 164 120 C164.99 119.505 164.99 119.505 166 119 C166 117.02 166 115.04 166 113 C164.35 113 162.7 113 161 113 C160.67 107.06 160.34 101.12 160 95 C161.98 95 163.96 95 166 95 C166 93.02 166 91.04 166 89 C164.02 89 162.04 89 160 89 C160 85.7 160 82.4 160 79 C156.9671229 79 155.40141466 80.21433269 153 82 Z M84 94 C81.17464144 98.30485375 80.7182338 102.07767455 81.5 107.125 C82.70587547 111.93370587 84.37463554 114.62756795 88 118 C92.01462268 120.38707295 96.42655241 120.74210659 101 120 C103.57109621 118.88424127 105.65189221 117.56540519 108 116 C108 115.34 108 114.68 108 114 C108.66 114 109.32 114 110 114 C112.55143325 109.21606265 112.68697445 104.28376647 112 99 C110.46746843 95.57539678 110.46746843 95.57539678 108 93 C107.34 92.21625 106.68 91.4325 106 90.625 C98.79029582 86.71974357 89.39236992 87.55737198 84 94 Z M120 91 C117.86897617 94.19653574 117.44118562 96.24736034 117.57421875 100.0703125 C117.88455574 102.29937284 117.88455574 102.29937284 120.3125 104.3125 C124.84345355 106.76904108 130.01697667 107.82961018 135 109 C135.33 110.32 135.66 111.64 136 113 C129.64772727 114.22159091 129.64772727 114.22159091 126.625 113.1875 C125 112 125 112 124 110 C121.69 110.33 119.38 110.66 117 111 C118.26909463 114.91304179 119.46256976 116.85610288 123 119 C127.86946689 120.62315563 132.85729314 120.57138849 137.8125 119.25 C140.52803224 117.69826729 142.17129891 116.57372746 144 114 C144.62202166 111.20090253 144.86423634 108.74837893 144 106 C140.33421404 102.27908944 136.67614562 101.05543998 131.6875 99.75 C130.43324219 99.41484375 129.17898438 99.0796875 127.88671875 98.734375 C126.93410156 98.49203125 125.98148438 98.2496875 125 98 C125 96.68 125 95.36 125 94 C126.45922693 94.11409593 127.91740598 94.24165544 129.375 94.375 C130.59316406 94.47941406 130.59316406 94.47941406 131.8359375 94.5859375 C134 95 134 95 136 97 C139.59679066 96.67673447 139.59679066 96.67673447 143 96 C141.59192967 92.59716338 140.17306769 90.88467443 137 89 C133.86146289 88.56276454 133.86146289 88.56276454 130.5 88.6875 C129.3759375 88.69136719 128.251875 88.69523437 127.09375 88.69921875 C124.11499828 88.98881961 122.45142687 89.33414401 120 91 Z M47 144 C47 157.53 47 171.06 47 185 C49.64 185 52.28 185 55 185 C55.33 179.39 55.66 173.78 56 168 C64.415 167.505 64.415 167.505 73 167 C73 165.02 73 163.04 73 161 C67.39 160.67 61.78 160.34 56 160 C55.67 156.7 55.34 153.4 55 150 C61.93 150 68.86 150 76 150 C76 148.02 76 146.04 76 144 C66.43 144 56.86 144 47 144 Z M212 144 C211.83222817 145.79156352 211.66581706 147.5832545 211.5 149.375 C211.36078125 150.87160156 211.36078125 150.87160156 211.21875 152.3984375 C210.97207053 154.89703736 210.97207053 154.89703736 211 157 C210.44183594 156.67773438 209.88367188 156.35546875 209.30859375 156.0234375 C205.31681764 154.25381763 201.27861103 154.43830228 197 155 C192.83720304 157.34157329 191.46620148 159.55677203 190 164 C189.13922269 171.34663427 189.35905537 177.10474601 194 183 C196.71353063 185.21366972 198.42408095 185.91236014 201.875 186.4375 C206.02606673 185.85635066 208.48032148 184.25259425 212 182 C212 182.99 212 183.98 212 185 C214.31 185 216.62 185 219 185 C219 171.47 219 157.94 219 144 C216.69 144 214.38 144 212 144 Z M83.1875 161.25 C80.96202538 166.4037307 80.36429196 170.86175881 82.0625 176.1875 C83.85440288 180.38236942 86.26943658 182.43523765 90 185 C94.32347606 186.44115869 98.2293336 186.50590469 102.625 185.25 C106.26292055 183.33530497 109.12567841 181.41556829 111.3125 177.875 C112.68757565 172.12468364 112.99004492 166.98008984 110.3125 161.625 C109.549375 160.75875 108.78625 159.8925 108 159 C107.34 158.21625 106.68 157.4325 106 156.625 C97.91289952 152.24448724 88.86019664 154.20803176 83.1875 161.25 Z M119 155 C118.9417538 158.72910066 118.90632083 162.45808364 118.875 166.1875 C118.85824219 167.24259766 118.84148437 168.29769531 118.82421875 169.38476562 C118.81777344 170.40634766 118.81132812 171.42792969 118.8046875 172.48046875 C118.79421387 173.41785889 118.78374023 174.35524902 118.77294922 175.32104492 C119.02212953 178.26110471 119.68855452 180.36377327 121 183 C123.65791363 185.14109709 125.50207147 185.92422827 128.875 186.4375 C133.02606673 185.85635066 135.48032148 184.25259425 139 182 C139.33 182.99 139.66 183.98 140 185 C141.98 185 143.96 185 146 185 C146 175.1 146 165.2 146 155 C143.69 155 141.38 155 139 155 C138.98018066 155.65597168 138.96036133 156.31194336 138.93994141 156.98779297 C138.84487493 159.95061069 138.73512248 162.91270532 138.625 165.875 C138.57859375 167.42380859 138.57859375 167.42380859 138.53125 169.00390625 C138.49257813 169.99003906 138.45390625 170.97617187 138.4140625 171.9921875 C138.3826416 172.90339355 138.3512207 173.81459961 138.31884766 174.75341797 C138 177 138 177 136 179 C132.4375 179.1875 132.4375 179.1875 129 179 C127.35351907 177.35351907 127.79422611 175.39249518 127.71875 173.125 C127.68136719 172.14015625 127.64398438 171.1553125 127.60546875 170.140625 C127.53515625 168.046875 127.46484375 165.953125 127.39453125 163.859375 C127.35714844 162.87453125 127.31976563 161.8896875 127.28125 160.875 C127.25095703 159.96492187 127.22066406 159.05484375 127.18945312 158.1171875 C127.22950241 156.01574568 127.22950241 156.01574568 126 155 C123.66702567 154.95907063 121.33294775 154.95758277 119 155 Z M155 155 C155 164.9 155 174.8 155 185 C157.64 185 160.28 185 163 185 C163.33 177.41 163.66 169.82 164 162 C172 161 172 161 174 161 C174.33 168.92 174.66 176.84 175 185 C177.31 185 179.62 185 182 185 C183.49311702 178.7194284 183.15519424 172.41469511 183 166 C182.98324219 165.23171875 182.96648437 164.4634375 182.94921875 163.671875 C182.70986999 160.52614844 182.01147423 159.01398422 180 156.5625 C175.90699047 154.4307242 172.52724838 154.17397573 168 155 C165.65215852 156.11163107 164.02967777 157.33462336 162 159 C162 157.68 162 156.36 162 155 C159.69 155 157.38 155 155 155 Z " fill="#2A2928" transform="translate(131,243)"/>
<path d="M0 0 C89.43 0 178.86 0 271 0 C282.66356877 22.16078067 282.66356877 22.16078067 287.88842773 32.64648438 C288.82819245 34.53147612 289.77233237 36.41423437 290.71679688 38.296875 C301 58.84528439 301 58.84528439 301 63 C211.24 63 121.48 63 29 63 C10.11111111 25.22222222 10.11111111 25.22222222 3.8828125 11.88671875 C2.7580303 9.48676723 1.61343439 7.39360631 0.1796875 5.14453125 C-0.20960938 4.43683594 -0.59890625 3.72914063 -1 3 C-0.67 2.01 -0.34 1.02 0 0 Z " fill="#2A2928" transform="translate(132,218)"/>
<path d="M0 0 C0.33 0 0.66 0 1 0 C1 70.95 1 141.9 1 215 C-24.41 215 -49.82 215 -76 215 C-76 159.89 -76 104.78 -76 48 C-58.51 48 -41.02 48 -23 48 C-22.34 46.02 -21.68 44.04 -21 42 C-20.11709914 40.07921568 -19.19584845 38.17571486 -18.2421875 36.2890625 C-17.70231201 35.21575684 -17.16243652 34.14245117 -16.60620117 33.03662109 C-15.74925659 31.34786865 -15.74925659 31.34786865 -14.875 29.625 C-14.29403564 28.47209473 -13.71307129 27.31918945 -13.11450195 26.13134766 C-11.95201397 23.82444229 -10.78805879 21.51827562 -9.62255859 19.21289062 C-7.46467791 14.93998815 -5.32464179 10.65830106 -3.1875 6.375 C-2.5561126 5.11191766 -1.92461745 3.84888918 -1.29296875 2.5859375 C-0.86628906 1.73257813 -0.43960938 0.87921875 0 0 Z " fill="#2A2928" transform="translate(120,243)"/>
<path d="M0 0 C3.56488711 0.61859401 6.70716025 1.59637627 10.0625 2.9375 C18.97133834 6.23484932 29.70165403 8.66814668 39.18115234 6.50146484 C41.59708098 5.9806117 43.53743463 5.72926656 46 6 C48.65298987 8.02433745 50.19437681 10.62430136 51.9375 13.4375 C52.9608029 14.93085931 53.99336341 16.41791782 55.03515625 17.8984375 C55.5367627 18.61354492 56.03836914 19.32865234 56.55517578 20.06542969 C63.892369 29.88968096 77.40952228 36.53502556 89.26953125 38.71728516 C93.19955237 39.12420258 96.97786198 38.77407527 100.90649414 38.46337891 C113.79564657 37.57433154 113.79564657 37.57433154 117.96142578 40.26855469 C121.52867915 43.96309138 123.65944172 48.47593388 126 53 C132.08656271 60.05549982 141.6191627 65.14934502 150 69 C149.34 70.65 148.68 72.3 148 74 C147.34 74 146.68 74 146 74 C145.72309326 74.58555664 145.44618652 75.17111328 145.16088867 75.77441406 C144.05624871 77.89216335 142.85447039 79.699657 141.42578125 81.609375 C140.9268335 82.27727051 140.42788574 82.94516602 139.91381836 83.63330078 C139.12116577 84.68106689 139.12116577 84.68106689 138.3125 85.75 C137.49567749 86.83450439 137.49567749 86.83450439 136.66235352 87.94091797 C133.53082463 92.06933009 130.31830317 96.05152919 126.8359375 99.890625 C123.37102148 103.87159235 120.18229349 108.07851008 116.94140625 112.2421875 C116.49080841 112.79039154 116.04021057 113.33859558 115.57595825 113.90341187 C113.92163043 115.99828046 113.92163043 115.99828046 112.62852478 118.5201416 C110.43559368 122.09299447 108.34349357 125.29349396 104.14702034 126.55862808 C98.48706905 127.43403288 92.76688203 127.14586155 87.0625 126.9765625 C85.21309241 126.95789117 83.36363506 126.94366603 81.51416016 126.9336853 C76.66637536 126.89565822 71.82162812 126.79757436 66.97503662 126.68664551 C62.02153616 126.5840044 57.06754055 126.53860392 52.11328125 126.48828125 C42.40752574 126.38130941 32.70401627 126.21083631 23 126 C23.70544321 121.29604408 24.90274168 117.57501628 26.90625 113.24609375 C27.33339294 112.31108788 27.33339294 112.31108788 27.76916504 111.35719299 C28.67269398 109.38077759 29.58540884 107.408818 30.5 105.4375 C31.41391738 103.46232921 32.32558406 101.48625422 33.23083496 99.50709534 C34.05137615 97.71370675 34.87996451 95.92400648 35.70898438 94.13452148 C36.84446723 91.3776258 37.5520409 88.93543753 38 86 C36.20767944 85.21351074 36.20767944 85.21351074 34.37915039 84.41113281 C29.91177206 82.4507331 25.44451584 80.49005526 20.97729492 78.52929688 C19.05024448 77.68351881 17.1231617 76.83781442 15.19604492 75.9921875 C12.41316187 74.77103106 9.63039835 73.5496026 6.84765625 72.328125 C5.99728287 71.95504211 5.14690948 71.58195923 4.27076721 71.1975708 C-1.1596042 68.8135297 -6.58262533 66.41342806 -12 64 C-11.72187106 51.19658703 -8.67019708 38.84268127 -6 26.375 C-5.53053 24.14728703 -5.06177415 21.91942343 -4.59375 19.69140625 C-2.87691466 11.55954138 -2.87691466 11.55954138 -2.015625 7.54052734 C-1.84321289 6.733685 -1.67080078 5.92684265 -1.49316406 5.09555054 C-1 3 -1 3 0 0 Z " fill="#2B2928" transform="translate(263,83)"/>
<path d="M0 0 C0.64501465 0.26578857 1.2900293 0.53157715 1.95458984 0.80541992 C7.00026646 2.91156402 11.95245854 5.20668625 16.88891602 7.55712891 C22.34501249 10.14111601 27.88020877 12.51779804 33.4375 14.875 C40.59478024 17.91471509 47.66246612 21.06634288 54.6796875 24.41796875 C58.21048191 26.07341656 61.79041267 27.59652471 65.3828125 29.11328125 C66.52331055 29.59941895 67.66380859 30.08555664 68.83886719 30.58642578 C71.12857277 31.55940582 73.42344387 32.52033101 75.72363281 33.46826172 C76.77131836 33.91572754 77.81900391 34.36319336 78.8984375 34.82421875 C79.84509277 35.21955811 80.79174805 35.61489746 81.76708984 36.0222168 C83.9375 37.375 83.9375 37.375 84.93554688 39.08837891 C84.93853977 42.59230869 83.47206888 45.40369597 82.0078125 48.51171875 C81.6980246 49.19176468 81.38823669 49.87181061 81.06906128 50.57246399 C80.07768026 52.74096008 79.07008824 54.90149471 78.0625 57.0625 C77.39091013 58.52883153 76.72032511 59.99562373 76.05078125 61.46289062 C71.13534999 72.17715001 71.13534999 72.17715001 69.9375 73.375 C68.5840941 73.47031163 67.22576016 73.4968872 65.8690033 73.49525452 C64.55433327 73.49731651 64.55433327 73.49731651 63.21310425 73.49942017 C61.75978195 73.49402725 61.75978195 73.49402725 60.27709961 73.48852539 C59.26258224 73.48867142 58.24806488 73.48881744 57.20280457 73.4889679 C53.83179627 73.48826829 50.46084246 73.48047368 47.08984375 73.47265625 C44.75956757 73.47079224 42.429291 73.46936826 40.09901428 73.46836853 C33.95212735 73.46454202 27.80526387 73.4547106 21.65838623 73.44366455 C15.39140134 73.43345329 9.12441268 73.42887152 2.85742188 73.42382812 C-9.44922908 73.41308845 -21.75586259 73.39601044 -34.0625 73.375 C-35.0625 71.375 -35.0625 71.375 -34.50613403 69.59143066 C-34.18716156 68.8735437 -33.86818909 68.15565674 -33.53955078 67.41601562 C-33.18232941 66.60177124 -32.82510803 65.78752686 -32.45706177 64.9486084 C-32.06130951 64.06838013 -31.66555725 63.18815186 -31.2578125 62.28125 C-30.85924042 61.3787854 -30.46066833 60.4763208 -30.05001831 59.54650879 C-28.76983206 56.65269679 -27.47874984 53.76388981 -26.1875 50.875 C-25.32351212 48.92609436 -24.46022174 46.97687934 -23.59765625 45.02734375 C-17.43765024 31.12530048 -17.43765024 31.12530048 -16.0625 28.375 C-19.16770177 29.0411511 -19.16770177 29.0411511 -20.22583008 31.39355469 C-20.59087646 32.26915039 -20.95592285 33.14474609 -21.33203125 34.046875 C-21.94860596 35.49984985 -21.94860596 35.49984985 -22.57763672 36.98217773 C-23.0057666 38.01930908 -23.43389648 39.05644043 -23.875 40.125 C-24.76851638 42.23610691 -25.66304182 44.34678703 -26.55859375 46.45703125 C-27.20417236 47.989646 -27.20417236 47.989646 -27.86279297 49.55322266 C-31.29791885 57.63282887 -35.07543662 65.55422184 -39.0625 73.375 C-44.6725 73.375 -50.2825 73.375 -56.0625 73.375 C-55.28309528 68.69857166 -54.60905401 65.90383869 -52.7265625 61.76171875 C-52.24469482 60.69074951 -51.76282715 59.61978027 -51.26635742 58.51635742 C-50.74533447 57.37658447 -50.22431152 56.23681152 -49.6875 55.0625 C-48.87029869 53.25251767 -48.05311203 51.44252845 -47.23704529 49.6320343 C-46.6781447 48.39278364 -46.11837336 47.15392534 -45.55775452 45.91545105 C-43.20557539 40.71502145 -40.91747254 35.48787166 -38.64086914 30.25390625 C-36.47426541 25.28254519 -34.2764125 20.32545352 -32.0625 15.375 C-31.71316406 14.59125 -31.36382812 13.8075 -31.00390625 13 C-30.10642309 11.01039878 -29.18537522 9.03450928 -28.25 7.0625 C-27.76917969 6.03511719 -27.28835937 5.00773438 -26.79296875 3.94921875 C-24.34725021 0.3110054 -21.18248763 -1.70633869 -17.1875 -3.4375 C-11.05995366 -3.97816585 -5.5965643 -2.31795686 0 0 Z M-20.0625 7.375 C-21.48912219 10.22824437 -21.37283868 12.20954549 -21.0625 15.375 C-18.41024724 19.36320801 -15.99008676 21.24895552 -11.62890625 23.14453125 C-10.52272949 23.63308594 -9.41655273 24.12164062 -8.27685547 24.625 C-7.07174316 25.140625 -5.86663086 25.65625 -4.625 26.1875 C-3.35513044 26.74234419 -2.08577343 27.29836272 -0.81689453 27.85546875 C2.66945794 29.38153198 6.16334085 30.88957365 9.65924072 32.39361572 C13.6756682 34.12373434 17.68693942 35.86575768 21.69921875 37.60546875 C26.55801743 39.71120168 31.41789405 41.81429671 36.28295898 43.90551758 C37.78503758 44.55149253 39.28707323 45.19756736 40.7890625 45.84375 C41.50461304 46.15155396 42.22016357 46.45935791 42.95739746 46.77648926 C47.88365662 48.90245003 52.77357427 51.09798277 57.63549805 53.36791992 C61.32162895 54.98052889 65.098123 56.17912847 68.9375 57.375 C69.97021642 55.27663996 70.98833717 53.17109109 72 51.0625 C72.56847656 49.89074219 73.13695312 48.71898437 73.72265625 47.51171875 C75.30513192 44.41538311 75.30513192 44.41538311 73.9375 41.375 C71.24124557 39.95324121 68.60158083 38.71636037 65.8046875 37.5234375 C64.95667572 37.15162354 64.10866394 36.77980957 63.23495483 36.39672852 C60.43189153 35.17071519 57.62244735 33.96014276 54.8125 32.75 C52.87299262 31.90663456 50.93386855 31.06238709 48.99511719 30.21728516 C44.9848716 28.47064394 40.9721415 26.72987235 36.95800781 24.9921875 C31.17428289 22.4840666 25.40989466 19.93376197 19.6484375 17.375 C17.00727007 16.20651938 14.36562389 15.03913073 11.72369385 13.87237549 C10.04201269 13.12815883 8.3614543 12.38139957 6.68206787 11.63201904 C4.33846933 10.58756059 1.99024915 9.55425438 -0.359375 8.5234375 C-1.03988922 8.21704346 -1.72040344 7.91064941 -2.42153931 7.5949707 C-8.78968091 4.8255457 -14.24922367 2.75857468 -20.0625 7.375 Z " fill="#2A2828" transform="translate(204.0625,135.625)"/>
<path d="M0 0 C25.08 0 50.16 0 76 0 C76.495 0.99 76.495 0.99 77 2 C76.23071289 4.06860352 76.23071289 4.06860352 74.97265625 6.62890625 C74.51431396 7.57282227 74.05597168 8.51673828 73.58374023 9.48925781 C73.08173096 10.50342773 72.57972168 11.51759766 72.0625 12.5625 C71.03326787 14.67289125 70.00462577 16.78357035 68.9765625 18.89453125 C68.21134277 20.4580835 68.21134277 20.4580835 67.43066406 22.05322266 C65.87239476 25.26283195 64.36394012 28.49244641 62.86914062 31.73193359 C58.54578358 41.09694129 53.7739794 50.20745173 48.90454102 59.29858398 C48.25319003 60.52375672 47.62053305 61.7589339 47 63 C21.59 63 -3.82 63 -30 63 C-29.2167011 59.0835055 -28.62602563 56.89443926 -26.8828125 53.5078125 C-26.22780762 52.21991821 -26.22780762 52.21991821 -25.55957031 50.90600586 C-25.08616211 49.98827393 -24.61275391 49.07054199 -24.125 48.125 C-19.59335715 39.21779758 -15.21139633 30.25431756 -10.96923828 21.20556641 C-7.5481816 13.96896946 -3.81254069 7.08043271 0 0 Z " fill="#2A2928" transform="translate(44,218)"/>
<path d="M0 0 C1.27094379 2.27613104 2.35107504 4.47155522 3.390625 6.8515625 C3.69949646 7.54381927 4.00836792 8.23607605 4.32659912 8.9493103 C4.97748984 10.41803496 5.62270909 11.88928407 6.26269531 13.36279297 C7.24095591 15.60427732 8.24799903 17.83118016 9.2578125 20.05859375 C9.88722434 21.48878916 10.51488522 22.91975668 11.140625 24.3515625 C11.59359955 25.34260483 11.59359955 25.34260483 12.0557251 26.35366821 C14.60622117 32.35489684 13.92617388 36.43951929 11.7565918 42.4375 C11.24265869 43.613125 10.72872559 44.78875 10.19921875 46 C9.78274834 46.9590625 9.78274834 46.9590625 9.35786438 47.9375 C8.77266225 49.28042091 8.1833406 50.62155356 7.59008789 51.9609375 C6.69162185 53.99068821 5.80671742 56.02593265 4.92382812 58.0625 C2.21303661 64.26172996 -0.62941234 70.1014716 -4 76 C-15.22 76 -26.44 76 -38 76 C-46.1510982 58.53336099 -46.1510982 58.53336099 -48.96484375 52.203125 C-49.44939781 51.11363556 -49.44939781 51.11363556 -49.94374084 50.00213623 C-50.60894648 48.50408589 -51.2732989 47.00565637 -51.93676758 45.50683594 C-52.61394402 43.97967834 -53.29370652 42.45366527 -53.97583008 40.92871094 C-54.97755504 38.68919926 -55.97204211 36.44660416 -56.96484375 34.203125 C-57.27099106 33.52195618 -57.57713837 32.84078735 -57.89256287 32.13897705 C-59.16402859 29.24521853 -60 27.19821202 -60 24 C-30.63645381 10.71613427 -30.63645381 10.71613427 -19.37866211 6.19897461 C-14.51885939 4.24540782 -9.7943561 2.07460364 -5.1015625 -0.25 C-3 -1 -3 -1 0 0 Z " fill="#2A2928" transform="translate(140,133)"/>
<path d="M0 0 C8.68812159 7.16965709 13.63532621 15.05955463 15.04296875 26.2890625 C15.51737505 34.49282021 14.05002799 42.99147307 9.16796875 49.7890625 C6.10394537 51.85934857 4.37232772 51.79271177 0.66796875 51.7265625 C-3.53337098 50.60120364 -5.15543373 49.17417113 -7.83203125 45.7890625 C-9.14883052 42.10648826 -8.32796556 39.66444118 -7.33203125 35.9296875 C-6.05093661 30.44500105 -6.14677442 26.41806559 -9.01953125 21.4765625 C-11.30378932 18.2558219 -13.00878075 16.11888876 -16.83203125 14.7890625 C-22.67072458 13.89716761 -26.82710061 13.82375331 -31.74560547 17.30566406 C-36.11727503 20.68364889 -38.08998651 24.20292335 -40.2265625 29.21484375 C-40.58546066 30.00304001 -40.94435883 30.79123627 -41.31413269 31.60331726 C-42.4450553 34.09399685 -43.54647654 36.59624049 -44.64453125 39.1015625 C-45.76434404 41.62264349 -46.89031303 44.14051981 -48.02848816 46.65336609 C-48.7324167 48.21067724 -49.42515224 49.77310672 -50.10542297 51.34089661 C-50.93596686 53.19408233 -51.87556707 54.99761706 -52.83203125 56.7890625 C-56.95883417 58.16466347 -58.4687315 56.83425281 -62.33203125 54.9765625 C-64.0490625 54.16251953 -64.0490625 54.16251953 -65.80078125 53.33203125 C-68.83203125 51.7890625 -68.83203125 51.7890625 -71.83203125 49.7890625 C-71.20113361 45.85639239 -69.98992449 42.6098294 -68.3203125 39 C-67.80919922 37.89269531 -67.29808594 36.78539062 -66.77148438 35.64453125 C-66.23458984 34.49597656 -65.69769531 33.34742188 -65.14453125 32.1640625 C-64.62697266 31.03871094 -64.10941406 29.91335937 -63.57617188 28.75390625 C-56.12295128 12.69653187 -50.27798977 0.2119527 -32.83203125 -6.2109375 C-21.03679699 -8.95401524 -9.85708022 -7.08314083 0 0 Z " fill="#2A2929" transform="translate(425.83203125,11.2109375)"/>
<path d="M0 0 C3.48435423 2.45488593 4.99790076 5.16804347 6.75 8.9375 C7.10449219 9.67484375 7.45898438 10.4121875 7.82421875 11.171875 C9.18066657 14.07404242 10.4655927 17.0026626 11.75 19.9375 C12.08676758 20.68805664 12.42353516 21.43861328 12.77050781 22.21191406 C13.90260849 24.73951021 15.01516984 27.27505542 16.125 29.8125 C16.6804248 31.04371582 16.6804248 31.04371582 17.24707031 32.29980469 C20.39733505 39.60446231 20.39733505 39.60446231 18.75 43.9375 C18.50121094 44.60394531 18.25242187 45.27039063 17.99609375 45.95703125 C17.24739583 47.6171875 16.49869792 49.27734375 15.75 50.9375 C15.09 50.9375 14.43 50.9375 13.75 50.9375 C11.97234594 46.96134661 10.20413681 42.98105924 8.4375 39 C7.93798828 37.88302734 7.43847656 36.76605469 6.92382812 35.61523438 C4.1988926 29.46157204 1.74721889 23.36540926 -0.25 16.9375 C-10.12117269 20.60148201 -19.78195168 24.67699035 -29.43457031 28.87597656 C-31.87703456 29.93838498 -34.32117356 30.99686044 -36.765625 32.0546875 C-44.27544368 35.30938013 -51.77052899 38.58480867 -59.19677734 42.02734375 C-61.25 42.9375 -61.25 42.9375 -64.25 43.9375 C-60.91377987 54.9274016 -55.96035935 65.29210213 -51.125 75.6875 C-43.25 92.66532258 -43.25 92.66532258 -43.25 96.9375 C-46.22 96.9375 -49.19 96.9375 -52.25 96.9375 C-58.02241663 85.72845033 -63.21785811 74.36135205 -68.125 62.75 C-68.79382487 61.17884654 -69.46309429 59.60788225 -70.1328125 58.03710938 C-71.84804027 54.00781312 -73.55825225 49.97672252 -75.25 45.9375 C-75.63945801 45.02701904 -76.02891602 44.11653809 -76.43017578 43.1784668 C-78.04395581 38.76724379 -77.69366046 35.06883416 -76 30.75 C-72.82234815 25.64305952 -69.55008631 23.35312749 -64.03515625 21.01953125 C-63.43135635 20.76079727 -62.82755646 20.50206329 -62.20545959 20.23548889 C-60.24488745 19.39784812 -58.27890443 18.57384382 -56.3125 17.75 C-54.95583876 17.17357926 -53.59955836 16.59626141 -52.24365234 16.01806641 C-49.52754557 14.86127814 -46.80938771 13.70953819 -44.08935547 12.56201172 C-40.67866664 11.12165591 -37.27703958 9.66117954 -33.87890625 8.19140625 C-32.93845459 7.78494873 -31.99800293 7.37849121 -31.02905273 6.9597168 C-29.31884963 6.22047989 -27.60872022 5.48107248 -25.89868164 4.74145508 C-8.42950792 -2.75580067 -8.42950792 -2.75580067 0 0 Z M-38.375 19.25 C-39.10332031 19.55873047 -39.83164063 19.86746094 -40.58203125 20.18554688 C-44.16435282 21.75819266 -46.03649068 22.61723602 -48.25 25.9375 C-42.62368074 25.41803489 -38.35290424 23.87294322 -33.3125 21.375 C-32.62865234 21.04564453 -31.94480469 20.71628906 -31.24023438 20.37695312 C-29.57268129 19.57232961 -27.91073161 18.7561103 -26.25 17.9375 C-26.25 17.2775 -26.25 16.6175 -26.25 15.9375 C-31.05925982 15.9375 -34.05382464 17.32904816 -38.375 19.25 Z " fill="#2B2829" transform="translate(141.25,112.0625)"/>
<path d="M0 0 C4.85963179 0.60745397 8.7405518 2.72758967 13 5 C12.43936538 9.34853271 11.37626252 12.77034205 9.453125 16.703125 C8.9375 17.76660156 8.421875 18.83007812 7.890625 19.92578125 C7.34921875 21.02277344 6.8078125 22.11976562 6.25 23.25 C5.7240625 24.33152344 5.198125 25.41304687 4.65625 26.52734375 C1.48217644 33.04047984 -1.74670204 39.5261188 -5 46 C-10.28137429 45.48474397 -13.57221156 43.74522883 -18 41 C-17.35421934 36.3220695 -15.46014671 32.35713657 -13.4375 28.14453125 C-12.91047485 27.03026009 -12.91047485 27.03026009 -12.37280273 25.89347839 C-11.25372662 23.53064784 -10.12696686 21.17157558 -9 18.8125 C-8.24168272 17.21443214 -7.48386472 15.61612726 -6.7265625 14.01757812 C-1.53206528 3.06413056 -1.53206528 3.06413056 0 0 Z " fill="#2A2828" transform="translate(353,68)"/>
<path d="M0 0 C0.66 0.99 1.32 1.98 2 3 C5.14550419 6.77747764 7.91668429 7.86023799 12.625 9.125 C18.80555556 10.80555556 18.80555556 10.80555556 21 13 C20.625 15.125 20.625 15.125 20 17 C13.76952141 18.34382872 13.76952141 18.34382872 10.0625 16.6875 C9.381875 16.130625 8.70125 15.57375 8 15 C8 14.34 8 13.68 8 13 C5.69 13.33 3.38 13.66 1 14 C3.29797175 18.49603169 4.87995148 20.28744088 9.75 21.875 C11.16094748 22.27097558 12.57617455 22.65317072 14 23 C14 23.66 14 24.32 14 25 C12.58194169 24.71517632 11.16559621 24.42181856 9.75 24.125 C8.96109375 23.96257812 8.1721875 23.80015625 7.359375 23.6328125 C3.92141136 22.71070967 1.59167703 22.00585096 -0.25 18.875 C-0.4975 18.25625 -0.745 17.6375 -1 17 C-4.18707102 18.51765287 -6.90198933 19.91832444 -9.625 22.1875 C-14.6382227 24.87978626 -19.42323132 24.32486031 -25 24 C-25 23.67 -25 23.34 -25 23 C-24.10796875 22.90203125 -23.2159375 22.8040625 -22.296875 22.703125 C-21.12640625 22.55359375 -19.9559375 22.4040625 -18.75 22.25 C-17.58984375 22.11078125 -16.4296875 21.9715625 -15.234375 21.828125 C-11.6205113 20.90283623 -10.424552 19.73596235 -8 17 C-7.34 17 -6.68 17 -6 17 C-5.80664062 16.07316406 -5.61328125 15.14632813 -5.4140625 14.19140625 C-5.15367187 12.99386719 -4.89328125 11.79632813 -4.625 10.5625 C-4.36976563 9.36753906 -4.11453125 8.17257812 -3.8515625 6.94140625 C-3.57054687 5.97074219 -3.28953125 5.00007813 -3 4 C-2.34 3.67 -1.68 3.34 -1 3 C-0.67 2.01 -0.34 1.02 0 0 Z " fill="#1E1A1F" transform="translate(247,340)"/>
<path d="M0 0 C2.20399956 2.34619308 2.95565939 3.96538565 3.09375 7.1875 C2.84753628 10.92994853 2.39417414 13.40143927 0.3125 16.5625 C-2.74866743 18.46538786 -4.45549525 18.59075079 -8 18 C-10.30275556 16.1329009 -11.67823871 14.64352259 -13 12 C-13.3751455 7.02932218 -13.15878799 3.94848498 -10 0 C-6.43706227 -2.8257782 -3.9156772 -1.91618246 0 0 Z " fill="#292729" transform="translate(233,405)"/>
<path d="M0 0 C3.9375 0.5 3.9375 0.5 5.875 1.5 C7.91549058 5.34092344 8.50565375 9.36227043 7.39453125 13.54296875 C5.49409767 18.22170116 5.49409767 18.22170116 2.9375 19.5 C-0.41169863 19.79123466 -2.42006835 19.86462337 -5.375 18.1875 C-8.0319761 15.5305239 -8.07579231 13.33517541 -8.375 9.625 C-8.31297054 6.56863909 -7.98416655 5.3433331 -6.5625 2.5 C-3.93189611 0.39551688 -3.21624106 0.1421543 0 0 Z " fill="#2A282A" transform="translate(228.0625,337.5)"/>
<path d="M0 0 C3.5 1.0625 3.5 1.0625 5.5 4.125 C7.18102799 9.16808396 6.5570712 13.71345289 4.375 18.5625 C2.5 20.0625 2.5 20.0625 -1 20.5 C-4.5 20.0625 -4.5 20.0625 -6.16796875 18.83984375 C-8.7163536 15.43950619 -8.50658949 11.1875203 -8.5 7.0625 C-7.24155433 2.02871731 -5.40026704 0.09643334 0 0 Z " fill="#2A2729" transform="translate(336.5,402.9375)"/>
<path d="M0 0 C2.77747682 -0.28639786 2.77747682 -0.28639786 5 -1 C5 -0.34 5 0.32 5 1 C5.99 1 6.98 1 8 1 C8 2.98 8 4.96 8 7 C7.34 7 6.68 7 6 7 C5.67 7.99 5.34 8.98 5 10 C2.36 10.33 -0.28 10.66 -3 11 C-3 11.66 -3 12.32 -3 13 C-4.41750563 12.88490339 -5.83401169 12.75746342 -7.25 12.625 C-8.43335938 12.52058594 -8.43335938 12.52058594 -9.640625 12.4140625 C-12.085877 11.98492887 -13.84836903 11.21399362 -16 10 C-15.67 8.68 -15.34 7.36 -15 6 C-13.54207116 5.94600264 -12.08357288 5.90720823 -10.625 5.875 C-9.81289063 5.85179687 -9.00078125 5.82859375 -8.1640625 5.8046875 C-6 6 -6 6 -4 8 C-0.41656024 8.16677282 -0.41656024 8.16677282 3 8 C0.45395403 4.47618313 0.45395403 4.47618313 -3 2 C-5.12318064 1.9027114 -7.24959691 1.87022381 -9.375 1.875 C-10.51710938 1.87242187 -11.65921875 1.86984375 -12.8359375 1.8671875 C-15.44801203 1.97683013 -17.56196033 2.09002745 -20 3 C-21.28436734 4.9837767 -21.28436734 4.9837767 -22 7 C-22.33 6.01 -22.66 5.02 -23 4 C-17.12199883 -2.29785839 -7.66710342 -3.17904288 0 0 Z " fill="#211C21" transform="translate(271,331)"/>
<path d="M0 0 C0.66 0 1.32 0 2 0 C2 0.66 2 1.32 2 2 C2.99 1.67 3.98 1.34 5 1 C5.33 1.99 5.66 2.98 6 4 C7.65 3.67 9.3 3.34 11 3 C8.81482901 5.40575607 6.74080329 6.79535581 3.8125 8.1875 C3.09707031 8.53167969 2.38164063 8.87585938 1.64453125 9.23046875 C1.10183594 9.48441406 0.55914062 9.73835937 0 10 C5.9589999 11.88178944 9.14210361 12.19671115 15 10 C14.67 10.66 14.34 11.32 14 12 C14.66 12.33 15.32 12.66 16 13 C16 12.34 16 11.68 16 11 C16.66 11 17.32 11 18 11 C18.33 10.34 18.66 9.68 19 9 C21 9 23 9 25 9 C25 9.66 25 10.32 25 11 C21.09195307 12.74202676 17.17763687 14.46882454 13.25683594 16.18188477 C11.92428527 16.76661837 10.59352848 17.35545808 9.26464844 17.94848633 C7.35289249 18.80077513 5.43514715 19.63803295 3.515625 20.47265625 C2.36352539 20.98062744 1.21142578 21.48859863 0.02441406 22.01196289 C-2.96574984 22.98881091 -4.14713053 23.17849222 -7 22 C-3.06171464 19.68336156 0.69235185 17.56641751 5 16 C4.1028125 15.566875 4.1028125 15.566875 3.1875 15.125 C1 14 1 14 -2 12 C-1.6875 9.625 -1.6875 9.625 -1 7 C-0.01 6.34 0.98 5.68 2 5 C1.01 3.68 0.02 2.36 -1 1 C-0.67 0.67 -0.34 0.34 0 0 Z M-2 14 C-1.34 14 -0.68 14 0 14 C0 14.66 0 15.32 0 16 C-0.66 16 -1.32 16 -2 16 C-2 15.34 -2 14.68 -2 14 Z " fill="#252124" transform="translate(94,127)"/>
<path d="M0 0 C1.640625 1.70703125 1.640625 1.70703125 3.25 3.8125 C3.79140625 4.49957031 4.3328125 5.18664062 4.890625 5.89453125 C6 8 6 8 5.671875 10.26171875 C5.45015625 10.83535156 5.2284375 11.40898437 5 12 C-2.99841017 13.57233704 -2.99841017 13.57233704 -6.625 11.5 C-8 9 -8 9 -8 5.4375 C-7 2 -7 2 -5.125 0 C-3 -1 -3 -1 0 0 Z " fill="#2B2B2B" transform="translate(333,344)"/>
<path d="M0 0 C0.66 0 1.32 0 2 0 C2.33 1.65 2.66 3.3 3 5 C3.66 5 4.32 5 5 5 C5 5.99 5 6.98 5 8 C3.02678947 9.3726682 1.02456848 10.70427617 -1 12 C-3.68773977 16.03160965 -3.67415933 19.26423878 -3 24 C-1.24209361 27.06005926 0.18504751 28.51102851 3.1875 30.3125 C10.03499292 31.9863316 14.78804754 31.32267224 21 28 C24.09132818 28.09092142 24.94219007 28.94700757 27.25 31.0625 C28.11625 32.0215625 28.11625 32.0215625 29 33 C26.9554346 32.48885865 24.91236597 31.97680276 22.875 31.4375 C20.99628047 30.92425679 20.99628047 30.92425679 19 31 C19 31.66 19 32.32 19 33 C1.26804559 33.76632696 1.26804559 33.76632696 -4 29 C-6.62267176 23.86868569 -6.24934039 18.80507939 -5.75 13.1875 C-5 11 -5 11 -3 9.8125 C-2.01 9.4103125 -2.01 9.4103125 -1 9 C-0.67 8.34 -0.34 7.68 0 7 C0.66 7 1.32 7 2 7 C1.67 6.401875 1.34 5.80375 1 5.1875 C0 3 0 3 0 0 Z " fill="#1C161B" transform="translate(322,331)"/>
<path d="M0 0 C0.99 0 1.98 0 3 0 C3 0.66 3 1.32 3 2 C3.85271484 2.09087891 3.85271484 2.09087891 4.72265625 2.18359375 C7.14949339 2.44694002 9.57470665 2.72282362 12 3 C13.299375 3.144375 14.59875 3.28875 15.9375 3.4375 C19 4 19 4 21 6 C20.625 8.125 20.625 8.125 20 10 C13.76952141 11.34382872 13.76952141 11.34382872 10.0625 9.6875 C9.0415625 8.8521875 9.0415625 8.8521875 8 8 C8 7.34 8 6.68 8 6 C5.03 5.67 2.06 5.34 -1 5 C-1.33 5.99 -1.66 6.98 -2 8 C-2 6.02 -2 4.04 -2 2 C-1.34 2 -0.68 2 0 2 C0 1.34 0 0.68 0 0 Z " fill="#1E191F" transform="translate(247,347)"/>
<path d="M0 0 C0.99 0.33 1.98 0.66 3 1 C3.02187378 1.83978394 3.02187378 1.83978394 3.04418945 2.6965332 C3.11871352 5.23588137 3.21535581 7.77392078 3.3125 10.3125 C3.33505859 11.19357422 3.35761719 12.07464844 3.38085938 12.98242188 C3.41630859 13.82998047 3.45175781 14.67753906 3.48828125 15.55078125 C3.51446533 16.33106689 3.54064941 17.11135254 3.56762695 17.9152832 C4.10147306 20.48925944 4.93768429 21.41071544 7 23 C9.28330101 23.36146457 9.28330101 23.36146457 11.6875 23.1875 C12.49574219 23.16042969 13.30398438 23.13335937 14.13671875 23.10546875 C15.05904297 23.05326172 15.05904297 23.05326172 16 23 C16 21.02 16 19.04 16 17 C18 19 18 19 18.125 22.125 C18.08375 23.07375 18.0425 24.0225 18 25 C16.20843648 25.16777183 14.4167455 25.33418294 12.625 25.5 C11.62726563 25.5928125 10.62953125 25.685625 9.6015625 25.78125 C7 26 7 26 5 26 C5 25.34 5 24.68 5 24 C4.34 24 3.68 24 3 24 C0.87719437 20.81579155 0.71980463 19.79462745 0.5859375 16.11328125 C0.54726563 15.17548828 0.50859375 14.23769531 0.46875 13.27148438 C0.4378125 12.29501953 0.406875 11.31855469 0.375 10.3125 C0.33632813 9.32443359 0.29765625 8.33636719 0.2578125 7.31835938 C0.16354133 4.87909293 0.07793782 2.43983405 0 0 Z " fill="#1E191D" transform="translate(281,339)"/>
<path d="M0 0 C0.33 0.99 0.66 1.98 1 3 C1.66 3 2.32 3 3 3 C3 4.98 3 6.96 3 9 C2.34 8.67 1.68 8.34 1 8 C0.67 10.97 0.34 13.94 0 17 C-12.5625 21.24908088 -12.5625 21.24908088 -17.75 20.5625 C-18.54921875 20.46066406 -19.3484375 20.35882813 -20.171875 20.25390625 C-20.77515625 20.17011719 -21.3784375 20.08632813 -22 20 C-22 19.67 -22 19.34 -22 19 C-21.11957031 18.90203125 -20.23914063 18.8040625 -19.33203125 18.703125 C-17.58986328 18.47882813 -17.58986328 18.47882813 -15.8125 18.25 C-14.66394531 18.11078125 -13.51539063 17.9715625 -12.33203125 17.828125 C-8.58222788 16.89616918 -6.74636574 15.68249677 -4 13 C-1.77840898 8.71550303 -0.5831515 4.78184232 0 0 Z " fill="#282327" transform="translate(244,410)"/>
<path d="M0 0 C3.45838472 -0.02687864 6.91656225 -0.04677983 10.375 -0.0625 C11.35984375 -0.07087891 12.3446875 -0.07925781 13.359375 -0.08789062 C14.77089844 -0.09272461 14.77089844 -0.09272461 16.2109375 -0.09765625 C17.51490479 -0.10551147 17.51490479 -0.10551147 18.84521484 -0.11352539 C21 0 21 0 23 1 C23 1.66 23 2.32 23 3 C22.34 3 21.68 3 21 3 C21 3.99 21 4.98 21 6 C21.66 6.33 22.32 6.66 23 7 C22.34 7 21.68 7 21 7 C21.33 7.66 21.66 8.32 22 9 C22.66 8.67 23.32 8.34 24 8 C23.67 9.65 23.34 11.3 23 13 C22.01 13.33 21.02 13.66 20 14 C20 12.35 20 10.7 20 9 C17.525 8.505 17.525 8.505 15 8 C15.99 7.34 16.98 6.68 18 6 C17.67 4.68 17.34 3.36 17 2 C16.26394531 2.01160156 15.52789062 2.02320313 14.76953125 2.03515625 C13.79371094 2.04417969 12.81789062 2.05320312 11.8125 2.0625 C10.36810547 2.07990234 10.36810547 2.07990234 8.89453125 2.09765625 C6.14423487 2.00486622 3.67520409 1.62111685 1 1 C1 3.97 1 6.94 1 10 C0.67 10 0.34 10 0 10 C0 6.7 0 3.4 0 0 Z " fill="#312C2F" transform="translate(186,393)"/>
<path d="M0 0 C0.33 0 0.66 0 1 0 C1 2.31 1 4.62 1 7 C0.34 7 -0.32 7 -1 7 C-1.33 7.66 -1.66 8.32 -2 9 C-2.33 9 -2.66 9 -3 9 C-2.979375 10.216875 -2.95875 11.43375 -2.9375 12.6875 C-2.93175884 15.91977322 -3.21233685 18.84934741 -4 22 C-2.68 22.66 -1.36 23.32 0 24 C-1.65614657 24.38218767 -3.32457024 24.71395102 -5 25 C-6 24 -6 24 -6.11352539 22.23413086 C-6.10828857 21.48526611 -6.10305176 20.73640137 -6.09765625 19.96484375 C-6.09443359 19.15595703 -6.09121094 18.34707031 -6.08789062 17.51367188 C-6.07951172 16.66353516 -6.07113281 15.81339844 -6.0625 14.9375 C-6.05798828 14.08349609 -6.05347656 13.22949219 -6.04882812 12.34960938 C-6.03700373 10.23304337 -6.01906769 8.11651315 -6 6 C-4.02 6 -2.04 6 0 6 C0 4.02 0 2.04 0 0 Z " fill="#241F22" transform="translate(297,332)"/>
<path d="M0 0 C0.99 0.33 1.98 0.66 3 1 C2.50617379 7.24112277 -0.34181862 12.35130576 -3.0625 17.875 C-3.77116211 19.33679687 -3.77116211 19.33679687 -4.49414062 20.828125 C-5.65595597 23.22216874 -6.8247207 25.61254494 -8 28 C-8.99 27.67 -9.98 27.34 -11 27 C-10.34 26.67 -9.68 26.34 -9 26 C-8.31527335 24.11235097 -8.31527335 24.11235097 -7.875 21.9375 C-7.70742188 21.20402344 -7.53984375 20.47054687 -7.3671875 19.71484375 C-7.24601562 19.14894531 -7.12484375 18.58304688 -7 18 C-6.34 18 -5.68 18 -5 18 C-5.0928125 16.63875 -5.0928125 16.63875 -5.1875 15.25 C-4.9787891 11.63234433 -4.29935291 10.66724937 -2 8 C-1.67 7.01 -1.34 6.02 -1 5 C-0.34 5 0.32 5 1 5 C0.67 3.35 0.34 1.7 0 0 Z " fill="#251F23" transform="translate(382,38)"/>
<path d="M0 0 C2.5625 0.1875 2.5625 0.1875 4.5625 2.1875 C4.4375 4.625 4.4375 4.625 3.5625 7.1875 C1.5 9 1.5 9 -0.4375 10.1875 C-2.5 7.9375 -2.5 7.9375 -4.4375 5.1875 C-4.14353511 1.65992129 -3.61650525 0.27819271 0 0 Z " fill="#242023" transform="translate(334.4375,324.8125)"/>
<path d="M0 0 C0.66 1.32 1.32 2.64 2 4 C1.319375 4.5259375 1.319375 4.5259375 0.625 5.0625 C-1.64661334 7.77096206 -2.16798854 10.60795328 -3 14 C-1.68 14 -0.36 14 1 14 C3.125 14.9375 3.125 14.9375 5 16 C5.66 16.33 6.32 16.66 7 17 C7 17.66 7 18.32 7 19 C1.71862571 18.48474397 -1.57221156 16.74522883 -6 14 C-5.41162314 9.29298514 -3.44104424 3.44104424 0 0 Z " fill="#261F25" transform="translate(341,95)"/>
<path d="M0 0 C0.66 0.66 1.32 1.32 2 2 C2.66 1.34 3.32 0.68 4 0 C4.99 0.99 5.98 1.98 7 3 C6.01 4.485 6.01 4.485 5 6 C4.34 6 3.68 6 3 6 C3 7.98 3 9.96 3 12 C2.34 11.67 1.68 11.34 1 11 C0.67 12.65 0.34 14.3 0 16 C-1.79275866 12.88089144 -2.34290718 10.32317572 -2.625 6.75 C-2.69976562 5.85796875 -2.77453125 4.9659375 -2.8515625 4.046875 C-2.92503906 3.03367187 -2.92503906 3.03367187 -3 2 C-2.67 2.66 -2.34 3.32 -2 4 C-1.34 4 -0.68 4 0 4 C0 2.68 0 1.36 0 0 Z " fill="#242223" transform="translate(315,397)"/>
<path d="M0 0 C0.33 0 0.66 0 1 0 C1.02505615 0.64026123 1.0501123 1.28052246 1.07592773 1.94018555 C1.1923546 4.85613726 1.31486867 7.7718029 1.4375 10.6875 C1.47681641 11.69490234 1.51613281 12.70230469 1.55664062 13.74023438 C1.59853516 14.71669922 1.64042969 15.69316406 1.68359375 16.69921875 C1.72025146 17.59471436 1.75690918 18.49020996 1.79467773 19.4128418 C2.00316707 22.03990658 2.28809906 24.46010333 3 27 C5.36186139 28.26145768 5.36186139 28.26145768 8 29 C8.99 29.66 9.98 30.32 11 31 C4.25 30.125 4.25 30.125 2 29 C2 28.34 2 27.68 2 27 C1.01 26.67 0.02 26.34 -1 26 C-0.67 17.42 -0.34 8.84 0 0 Z " fill="#221D21" transform="translate(249,399)"/>
<path d="M0 0 C1.98 0 3.96 0 6 0 C6 1.32 6 2.64 6 4 C7.9600281 5.63676257 7.9600281 5.63676257 10 7 C10 7.66 10 8.32 10 9 C7.50638429 7.79618552 5.31856917 6.54571278 3 5 C-0.19806665 4.5396236 -0.19806665 4.5396236 -3.6875 4.375 C-4.86699219 4.30023438 -6.04648438 4.22546875 -7.26171875 4.1484375 C-8.16535156 4.09945313 -9.06898438 4.05046875 -10 4 C-10 3.34 -10 2.68 -10 2 C-6.61981469 0.95994298 -3.5219721 0.91995518 0 1 C0 0.67 0 0.34 0 0 Z " fill="#211B21" transform="translate(231,328)"/>
<path d="M0 0 C5.21342077 0.60659298 9.50219872 2.27066317 14.25 4.375 C14.96929687 4.67921875 15.68859375 4.9834375 16.4296875 5.296875 C19.9877211 6.85601332 21.80094784 7.70142176 24 11 C17.61613784 9.7723342 12.52843567 7.36289136 6.83203125 4.2421875 C3.93538318 2.97165772 2.11853851 2.7377463 -1 3 C-0.67 2.01 -0.34 1.02 0 0 Z " fill="#272127" transform="translate(231,176)"/>
<path d="M0 0 C0.66 0.33 1.32 0.66 2 1 C2.46001784 7.55525419 1.46797303 10.47291798 -2 16 C-2 16.99 -2 17.98 -2 19 C-1.34 19.33 -0.68 19.66 0 20 C0 20.99 0 21.98 0 23 C-0.66 23 -1.32 23 -2 23 C-3.2890625 21.25 -3.2890625 21.25 -4.625 19 C-5.07101562 18.2575 -5.51703125 17.515 -5.9765625 16.75 C-6.48316406 15.88375 -6.48316406 15.88375 -7 15 C-6.21625 14.4225 -5.4325 13.845 -4.625 13.25 C-2.09625859 11.08250737 -0.97808833 10.11209923 0 7 C0.0777346 4.66796188 0.08967728 2.33160941 0 0 Z " fill="#1C171D" transform="translate(345,324)"/>
<path d="M0 0 C1.60546875 1.77734375 1.60546875 1.77734375 3.1875 3.9375 C3.71730469 4.64777344 4.24710937 5.35804688 4.79296875 6.08984375 C6 8 6 8 6 10 C4 10 4 10 2.5625 8.8125 C0.73179385 6.68888086 -0.6182328 4.43454221 -2 2 C-3.60414215 3.18523997 -3.60414215 3.18523997 -5 5 C-5.25069913 7.62570704 -5.25069913 7.62570704 -5 10 C-5.99 9.67 -6.98 9.34 -8 9 C-7.5129959 2.54719562 -7.5129959 2.54719562 -5.125 0 C-3 -1 -3 -1 0 0 Z " fill="#1B171E" transform="translate(333,344)"/>
<path d="M0 0 C4.92958164 4.49771658 8.38584132 10.58715616 9.31640625 17.2734375 C9.3125 19.1875 9.3125 19.1875 9 22 C8.34 22 7.68 22 7 22 C6 19 5 16 4 13 C3.74863281 12.2575 3.49726563 11.515 3.23828125 10.75 C2.97402344 9.96625 2.70976562 9.1825 2.4375 8.375 C2.18871094 7.64023438 1.93992188 6.90546875 1.68359375 6.1484375 C1.03591397 4.11287247 0.49357257 2.07770547 0 0 Z " fill="#231F23" transform="translate(142,143)"/>
<path d="M0 0 C2.475 0.495 2.475 0.495 5 1 C4.67 1.99 4.34 2.98 4 4 C2.03125 4.80859375 2.03125 4.80859375 -0.5 5.4375 C-4.97777225 6.63885353 -8.95001488 8.25445391 -13.08984375 10.328125 C-15 11 -15 11 -18 10 C-17.07316406 9.59007812 -16.14632812 9.18015625 -15.19140625 8.7578125 C-13.99386719 8.21898437 -12.79632813 7.68015625 -11.5625 7.125 C-10.36753906 6.59132812 -9.17257813 6.05765625 -7.94140625 5.5078125 C-4.91472369 4.32272765 -4.91472369 4.32272765 -4 2 C-2.68 2.33 -1.36 2.66 0 3 C0 2.01 0 1.02 0 0 Z " fill="#241C24" transform="translate(138,125)"/>
<path d="M0 0 C0.33 0 0.66 0 1 0 C1.33 2.64 1.66 5.28 2 8 C2.66 8 3.32 8 4 8 C4.5 15.375 4.5 15.375 0 21 C0 14.07 0 7.14 0 0 Z " fill="#1F1D1E" transform="translate(258,397)"/>
<path d="M0 0 C5.64288045 0.03494044 10.48424891 0.66142097 15.8984375 2.265625 C15.8984375 3.255625 15.8984375 4.245625 15.8984375 5.265625 C13.9184375 5.595625 11.9384375 5.925625 9.8984375 6.265625 C9.5684375 5.275625 9.2384375 4.285625 8.8984375 3.265625 C4.6084375 2.935625 0.3184375 2.605625 -4.1015625 2.265625 C-2.1015625 0.265625 -2.1015625 0.265625 0 0 Z " fill="#241E21" transform="translate(401.1015625,3.734375)"/>
<path d="M0 0 C2.475 0.495 2.475 0.495 5 1 C7.20409437 6.18610439 7.09889421 9.59710348 6 15 C5.01 15.495 5.01 15.495 4 16 C4 7 4 7 5 5 C4.01 4.67 3.02 4.34 2 4 C2 3.34 2 2.68 2 2 C1.34 2 0.68 2 0 2 C0 1.34 0 0.68 0 0 Z " fill="#211B21" transform="translate(336,404)"/>
<path d="M0 0 C0.66 0 1.32 0 2 0 C2 1.65 2 3.3 2 5 C2.639375 5.226875 3.27875 5.45375 3.9375 5.6875 C6 7 6 7 6.75 9.625 C6.8325 10.40875 6.915 11.1925 7 12 C6.34 12 5.68 12 5 12 C5 12.66 5 13.32 5 14 C3.02 14.99 3.02 14.99 1 16 C1.33 15.21625 1.66 14.4325 2 13.625 C3.11866511 11.15667503 3.11866511 11.15667503 3 9 C1.0399719 7.36323743 1.0399719 7.36323743 -1 6 C-0.67 4.02 -0.34 2.04 0 0 Z " fill="#201921" transform="translate(351,348)"/>
<path d="M0 0 C0.99 0 1.98 0 3 0 C3 0.66 3 1.32 3 2 C3.86625 2.185625 3.86625 2.185625 4.75 2.375 C7.02335767 3.00648824 8.9253529 3.88858191 11 5 C10.01 5.99 9.02 6.98 8 8 C8 7.34 8 6.68 8 6 C5.03 5.67 2.06 5.34 -1 5 C-1.33 5.99 -1.66 6.98 -2 8 C-2 6.02 -2 4.04 -2 2 C-1.34 2 -0.68 2 0 2 C0 1.34 0 0.68 0 0 Z " fill="#2E2D2E" transform="translate(247,347)"/>
<path d="M0 0 C3.14292072 2.09528048 3.50856669 2.58783233 4.6875 5.9375 C4.93886719 6.62714844 5.19023438 7.31679687 5.44921875 8.02734375 C6 10 6 10 6 13 C5.01 13 4.02 13 3 13 C2.67 11.68 2.34 10.36 2 9 C1.34 9.99 0.68 10.98 0 12 C-1.1898968 7.68662408 -0.94128806 4.35345729 0 0 Z " fill="#262122" transform="translate(85,180)"/>
<path d="M0 0 C1.98 0.99 1.98 0.99 4 2 C4 2.66 4 3.32 4 4 C5.051875 3.95875 6.10375 3.9175 7.1875 3.875 C10.74010173 3.99147875 12.84866641 4.47208068 16 6 C13.6084939 8.3915061 12.28552716 8.51919115 9 9 C8.01 9 7.02 9 6 9 C6.33 8.01 6.66 7.02 7 6 C6.01 6.495 6.01 6.495 5 7 C2.5 5.1875 2.5 5.1875 0 3 C0 2.01 0 1.02 0 0 Z " fill="#2E2D2F" transform="translate(259,163)"/>
<path d="M0 0 C3.71633739 3.20373913 5.45114546 6.35343637 7 11 C6.8125 13.875 6.8125 13.875 6 16 C5.34 16.33 4.68 16.66 4 17 C3.67 13.37 3.34 9.74 3 6 C1.68 6.33 0.36 6.66 -1 7 C-0.67 4.69 -0.34 2.38 0 0 Z " fill="#241F23" transform="translate(154,140)"/>
<path d="M0 0 C2.64 0.33 5.28 0.66 8 1 C7.67 1.99 7.34 2.98 7 4 C7.66 4.33 8.32 4.66 9 5 C8.01 5 7.02 5 6 5 C6 5.66 6 6.32 6 7 C3.36 6.67 0.72 6.34 -2 6 C-1.34 5.67 -0.68 5.34 0 5 C0 3.68 0 2.36 0 1 C0 0.67 0 0.34 0 0 Z " fill="#2A2A2A" transform="translate(189,132)"/>
<path d="M0 0 C1.65 0 3.3 0 5 0 C5 0.66 5 1.32 5 2 C5.66 2 6.32 2 7 2 C7 3.65 7 5.3 7 7 C6.01 6.67 5.02 6.34 4 6 C3.67 5.01 3.34 4.02 3 3 C2.236875 3.680625 1.47375 4.36125 0.6875 5.0625 C-0.199375 5.701875 -1.08625 6.34125 -2 7 C-2.99 6.67 -3.98 6.34 -5 6 C-4.01 5.67 -3.02 5.34 -2 5 C-2.33 4.01 -2.66 3.02 -3 2 C-2.01 2 -1.02 2 0 2 C0 1.34 0 0.68 0 0 Z " fill="#242021" transform="translate(288,318)"/>
<path d="M0 0 C0.33 0 0.66 0 1 0 C1.10957031 0.58007812 1.21914063 1.16015625 1.33203125 1.7578125 C3.06042964 10.61464393 3.06042964 10.61464393 9 17 C9 17.66 9 18.32 9 19 C5.69936902 18.08315806 4.06525231 17.06877946 1.6875 14.5625 C-0.6373422 9.6544998 -0.34202493 5.33938915 0 0 Z " fill="#211B20" transform="translate(319,410)"/>
<path d="M0 0 C7.30402245 -0.35921422 7.30402245 -0.35921422 9.9375 1 C11.69184465 4.30229582 11.82214345 7.26501248 12 11 C11.34 11.66 10.68 12.32 10 13 C9.89042969 12.37351562 9.78085938 11.74703125 9.66796875 11.1015625 C9.50941406 10.28429687 9.35085937 9.46703125 9.1875 8.625 C9.03667969 7.81289063 8.88585937 7.00078125 8.73046875 6.1640625 C8.12455058 3.64179359 8.12455058 3.64179359 5 2 C1.85778033 2.31506627 1.85778033 2.31506627 -1 3 C-0.67 2.01 -0.34 1.02 0 0 Z " fill="#1B151C" transform="translate(224,338)"/>
<path d="M0 0 C0.66 0.33 1.32 0.66 2 1 C1.45628039 5.53099675 0.28697545 8.83672603 -1.9375 12.8125 C-2.46214844 13.76769531 -2.98679687 14.72289062 -3.52734375 15.70703125 C-5 18 -5 18 -7 19 C-5.35510731 13.75034249 -3.51157092 8.90897952 -1 4 C-0.31363375 1.76474965 -0.31363375 1.76474965 0 0 Z " fill="#241E23" transform="translate(107,240)"/>
<path d="M0 0 C2.2578125 -0.30078125 2.2578125 -0.30078125 5 0 C7.0546875 2.08203125 7.0546875 2.08203125 8.875 4.8125 C9.49117188 5.70582031 10.10734375 6.59914062 10.7421875 7.51953125 C11.15726562 8.33808594 11.57234375 9.15664062 12 10 C11.67 10.99 11.34 11.98 11 13 C7 8.25 7 8.25 7 6 C5.02 6.99 5.02 6.99 3 8 C3.185625 7.401875 3.37125 6.80375 3.5625 6.1875 C4.22093687 3.83591238 4.22093687 3.83591238 3 1 C2.01 0.67 1.02 0.34 0 0 Z " fill="#1F191F" transform="translate(375,123)"/>
<path d="M0 0 C0.94467607 2.55062538 1.02758299 3.88690973 0.375 6.5625 C-1.37752855 9.66925516 -2.71782686 10.61419356 -6 12 C-9.8125 12.1875 -9.8125 12.1875 -13 12 C-10 10 -10 10 -7.5625 9.1875 C-4.34359299 7.69581139 -2.98443566 5.90578078 -1 3 C-0.67 2.01 -0.34 1.02 0 0 Z " fill="#191419" transform="translate(276,352)"/>
<path d="M0 0 C4.36109605 0.50710419 7.45075299 1.36341651 11 4 C11.33 4.99 11.66 5.98 12 7 C10.68 6.67 9.36 6.34 8 6 C8.33 6.66 8.66 7.32 9 8 C7.68 7.34 6.36 6.68 5 6 C5 5.01 5 4.02 5 3 C3.35 2.67 1.7 2.34 0 2 C0 1.34 0 0.68 0 0 Z " fill="#242124" transform="translate(197,161)"/>
<path d="M0 0 C2 3 2 3 2 7 C2.99 7.33 3.98 7.66 5 8 C4.67 8.99 4.34 9.98 4 11 C3.34 10.67 2.68 10.34 2 10 C1.67 11.65 1.34 13.3 1 15 C-1.14699969 11.55824478 -1.09856795 9.2279708 -0.625 5.25 C-0.51414062 4.26515625 -0.40328125 3.2803125 -0.2890625 2.265625 C-0.19367188 1.51796875 -0.09828125 0.7703125 0 0 Z " fill="#231F22" transform="translate(314,414)"/>
<path d="M0 0 C1 3 1 3 -0.14453125 5.6640625 C-0.97017578 7.12972656 -0.97017578 7.12972656 -1.8125 8.625 C-2.62654297 10.09839844 -2.62654297 10.09839844 -3.45703125 11.6015625 C-5 14 -5 14 -7 15 C-6.68383092 8.83470299 -3.50784939 4.82731567 0 0 Z " fill="#251E23" transform="translate(99,260)"/>
<path d="M0 0 C0.33 0.66 0.66 1.32 1 2 C1.99 1.67 2.98 1.34 4 1 C4.33 3.31 4.66 5.62 5 8 C4.01 7.67 3.02 7.34 2 7 C-0.63804589 7.39397335 -0.63804589 7.39397335 -3 8 C-1.125 2.25 -1.125 2.25 0 0 Z " fill="#312D31" transform="translate(364,37)"/>
<path d="M0 0 C0.66 0 1.32 0 2 0 C2.33 0.99 2.66 1.98 3 3 C2.67 3.66 2.34 4.32 2 5 C1.84824451 6.59262066 1.75099675 8.19064856 1.68359375 9.7890625 C1.64169922 10.73007812 1.59980469 11.67109375 1.55664062 12.640625 C1.51732422 13.62546875 1.47800781 14.6103125 1.4375 15.625 C1.39431641 16.61757813 1.35113281 17.61015625 1.30664062 18.6328125 C1.20038931 21.08839838 1.09835036 23.54408703 1 26 C0.67 26 0.34 26 0 26 C0 17.42 0 8.84 0 0 Z " fill="#241E24" transform="translate(350,384)"/>
<path d="M0 0 C2.19963566 2.19963566 2.57049648 2.99347539 3 6 C2.5625 8.75 2.5625 8.75 2 11 C2.66 11 3.32 11 4 11 C4 11.66 4 12.32 4 13 C1 12 1 12 -0.75 8.625 C-2 5 -2 5 -1 2 C-0.67 1.34 -0.34 0.68 0 0 Z " fill="#262023" transform="translate(84,159)"/>
<path d="M0 0 C0.66 0.33 1.32 0.66 2 1 C1.814375 1.804375 1.62875 2.60875 1.4375 3.4375 C1.2209375 4.7059375 1.2209375 4.7059375 1 6 C1.33 6.33 1.66 6.66 2 7 C2.04063832 8.66617115 2.042721 10.33388095 2 12 C1.34 12 0.68 12 0 12 C-3.07692308 5.6 -3.07692308 5.6 -2.6875 2.5625 C-2.460625 2.046875 -2.23375 1.53125 -2 1 C-2 1.66 -2 2.32 -2 3 C-1.34 3 -0.68 3 0 3 C0 2.01 0 1.02 0 0 Z " fill="#252125" transform="translate(155,151)"/>
<path d="M0 0 C0.33 0.66 0.66 1.32 1 2 C1.66 2 2.32 2 3 2 C3.33 3.98 3.66 5.96 4 8 C3.01 8.33 2.02 8.66 1 9 C0.34 8.34 -0.32 7.68 -1 7 C-1.99 7.495 -1.99 7.495 -3 8 C-1.125 1.125 -1.125 1.125 0 0 Z " fill="#242221" transform="translate(36,236)"/>
<path d="M0 0 C3 1 3 1 4 2 C4.33 1.34 4.66 0.68 5 0 C5.66 0.33 6.32 0.66 7 1 C7 1.99 7 2.98 7 4 C0.375 7.125 0.375 7.125 -3 6 C-2.34 5.34 -1.68 4.68 -1 4 C-0.01 4 0.98 4 2 4 C2 3.34 2 2.68 2 2 C1.34 2 0.68 2 0 2 C0 1.34 0 0.68 0 0 Z " fill="#241E22" transform="translate(77,149)"/>
<path d="M0 0 C2.66931006 5.12552394 4.35375916 10.16297391 4 16 C3.34 16 2.68 16 2 16 C0.13216954 10.51324804 -0.2358396 5.77807024 0 0 Z " fill="#211D23" transform="translate(211,344)"/>
<path d="M0 0 C1.3921875 0.3403125 1.3921875 0.3403125 2.8125 0.6875 C2.8125 1.6775 2.8125 2.6675 2.8125 3.6875 C0 4.3125 0 4.3125 -3.1875 4.6875 C-4.1775 4.0275 -5.1675 3.3675 -6.1875 2.6875 C-4.14987265 -0.14253799 -3.59070275 -0.35202968 0 0 Z " fill="#2B2829" transform="translate(262.1875,338.3125)"/>
<path d="M0 0 C0.875 2.125 0.875 2.125 1 4 C-0.32 3.67 -1.64 3.34 -3 3 C-3 2.01 -3 1.02 -3 0 C-5.64 0.99 -8.28 1.98 -11 3 C-10.1875 1.0625 -10.1875 1.0625 -9 -1 C-5.1851221 -2.27162597 -3.6068725 -1.64661571 0 0 Z " fill="#1E1820" transform="translate(233,405)"/>
<path d="M0 0 C2.08343904 2.50012684 3.71433305 5.14195318 5.25 8 C5.60578125 8.66 5.9615625 9.32 6.328125 10 C7.13384316 12.39841683 6.81998065 13.64518377 6 16 C4.9901527 14.08850332 3.99245505 12.17058431 3 10.25 C2.443125 9.18265625 1.88625 8.1153125 1.3125 7.015625 C0 4 0 4 0 0 Z " fill="#251D23" transform="translate(403,219)"/>
<path d="M0 0 C0.99 0.99 1.98 1.98 3 3 C2.34 3 1.68 3 1 3 C1 3.66 1 4.32 1 5 C0.01 4.67 -0.98 4.34 -2 4 C-5.05270463 3.84188612 -5.05270463 3.84188612 -8 5 C-8.99 4.01 -9.98 3.02 -11 2 C-8.02148438 1.65820312 -8.02148438 1.65820312 -5.04296875 1.31640625 C-2.80603607 1.02829265 -2.80603607 1.02829265 0 0 Z " fill="#2E2D2C" transform="translate(109,135)"/>
<path d="M0 0 C3.375 0.6875 3.375 0.6875 7 2 C8.4375 4.625 8.4375 4.625 9 7 C5.51375944 6.3543999 2.87501211 5.07639763 0 3 C0 2.01 0 1.02 0 0 Z " fill="#252025" transform="translate(409,23)"/>
<path d="M0 0 C1 3 1 3 0.3125 5.625 C-1 8 -1 8 -3.125 8.8125 C-3.74375 8.874375 -4.3625 8.93625 -5 9 C-3.90931332 5.22454612 -3.0916909 2.52956528 0 0 Z " fill="#332E32" transform="translate(31,247)"/>
<path d="M0 0 C1.32 0 2.64 0 4 0 C3.38461538 7.50769231 3.38461538 7.50769231 1.4375 10 C0.963125 10.33 0.48875 10.66 0 11 C0 7.33333333 0 3.66666667 0 0 Z " fill="#252122" transform="translate(170,184)"/>
<path d="M0 0 C4.98287932 0.39081406 8.65022018 1.55987961 13 4 C13 4.66 13 5.32 13 6 C11.41531323 5.54636829 9.83230076 5.08688548 8.25 4.625 C7.36828125 4.36976563 6.4865625 4.11453125 5.578125 3.8515625 C3.23919428 3.0790066 1.16557438 2.16374324 -1 1 C-0.67 0.67 -0.34 0.34 0 0 Z " fill="#241E24" transform="translate(239,153)"/>
<path d="M0 0 C0.66 0.33 1.32 0.66 2 1 C3.67654729 0.72057545 5.34608154 0.39171753 7 0 C7 0.66 7 1.32 7 2 C5.40084119 2.69906942 3.79544955 3.38389468 2.1875 4.0625 C1.29417969 4.44535156 0.40085937 4.82820312 -0.51953125 5.22265625 C-3 6 -3 6 -6 5 C-4.68 4.67 -3.36 4.34 -2 4 C-2 3.34 -2 2.68 -2 2 C-1.34 2 -0.68 2 0 2 C0 1.34 0 0.68 0 0 Z " fill="#1E181F" transform="translate(112,136)"/>
<path d="M0 0 C0.33 0 0.66 0 1 0 C1.28571429 8.57142857 1.28571429 8.57142857 -1 12 C-2.87643761 10.12356239 -2.17984987 7.50194299 -2.23046875 5.0078125 C-2 3 -2 3 0 0 Z " fill="#241E25" transform="translate(222,340)"/>
<path d="M0 0 C4.85963179 0.60745397 8.7405518 2.72758967 13 5 C13 5.66 13 6.32 13 7 C10.525 6.01 10.525 6.01 8 5 C7.34 5.66 6.68 6.32 6 7 C6 5.68 6 4.36 6 3 C4.02 2.34 2.04 1.68 0 1 C0 0.67 0 0.34 0 0 Z " fill="#211C23" transform="translate(276,169)"/>
<path d="M0 0 C-0.33 0.66 -0.66 1.32 -1 2 C-2.66500443 2.34153937 -4.33178677 2.67449498 -6 3 C-6.66 3.66 -7.32 4.32 -8 5 C-8.99 4.67 -9.98 4.34 -11 4 C-11 3.34 -11 2.68 -11 2 C-3.57142857 -1.57142857 -3.57142857 -1.57142857 0 0 Z " fill="#261E22" transform="translate(95,153)"/>
<path d="M0 0 C-1.57533086 0.86883706 -3.16064509 1.71959068 -4.75 2.5625 C-5.63171875 3.03816406 -6.5134375 3.51382813 -7.421875 4.00390625 C-10.20701188 5.07998186 -11.26980214 5.06528748 -14 4 C-4.67586207 -1.55862069 -4.67586207 -1.55862069 0 0 Z " fill="#201921" transform="translate(101,145)"/>
<path d="M0 0 C0.33 0.66 0.66 1.32 1 2 C-3.02206335 4.90275073 -5.42363813 5.27846132 -10.3125 4.6875 C-11.91544922 4.50767578 -11.91544922 4.50767578 -13.55078125 4.32421875 C-14.35902344 4.21722656 -15.16726562 4.11023438 -16 4 C-16 3.67 -16 3.34 -16 3 C-14.64455078 2.80083984 -14.64455078 2.80083984 -13.26171875 2.59765625 C-12.08222656 2.42105469 -10.90273437 2.24445313 -9.6875 2.0625 C-7.92986328 1.80146484 -7.92986328 1.80146484 -6.13671875 1.53515625 C-2.98358597 1.07906969 -2.98358597 1.07906969 0 0 Z " fill="#1D171D" transform="translate(238,426)"/>
<path d="M0 0 C2.35981813 0.93578995 4.69631264 1.93347808 7 3 C7 3.66 7 4.32 7 5 C5.68 5.33 4.36 5.66 3 6 C3 5.01 3 4.02 3 3 C0.69 3.33 -1.62 3.66 -4 4 C-3.34 3.67 -2.68 3.34 -2 3 C-2 2.34 -2 1.68 -2 1 C-1.34 0.67 -0.68 0.34 0 0 Z " fill="#242023" transform="translate(112,125)"/>
<path d="M0 0 C1.88646445 2.77421243 1.99303187 4.13239454 1.8125 7.5625 C0.99059502 11.03979031 0.52809111 11.75810788 -2 14 C-1.03644647 4.58997722 -1.03644647 4.58997722 0 0 Z " fill="#3A3136" transform="translate(260,95)"/>
<path d="M0 0 C0.66 0 1.32 0 2 0 C4.04169485 2.90548882 5 4.40142046 5 8 C3.125 7.75 3.125 7.75 1 7 C-0.3125 5.125 -0.3125 5.125 -1 3 C-0.67 2.01 -0.34 1.02 0 0 Z M1 4 C2 6 2 6 2 6 Z " fill="#241F22" transform="translate(212,419)"/>
<path d="M0 0 C0.66 0.33 1.32 0.66 2 1 C0.75 3.5 0.75 3.5 -1 6 C-2.32 6 -3.64 6 -5 6 C-5 5.34 -5 4.68 -5 4 C-5.66 3.67 -6.32 3.34 -7 3 C-4.69631264 1.93347808 -2.35981813 0.93578995 0 0 Z " fill="#302B31" transform="translate(101,123)"/>
<path d="M0 0 C4.75481646 0.57634139 7.97048212 2.55068521 12 5 C11.34 5.66 10.68 6.32 10 7 C7.525 6.01 7.525 6.01 5 5 C5 4.34 5 3.68 5 3 C2.525 2.01 2.525 2.01 0 1 C0 0.67 0 0.34 0 0 Z " fill="#1D181D" transform="translate(400,147)"/>
<path d="M0 0 C0.99 0.33 1.98 0.66 3 1 C5.26415094 6.20754717 5.26415094 6.20754717 4 10 C1.16625119 6.79663178 0.4794463 4.21912747 0 0 Z " fill="#201C22" transform="translate(147,141)"/>
<path d="M0 0 C1.04449911 3.13349732 0.93423645 3.98968256 0 7 C-0.66 7 -1.32 7 -2 7 C-2.66 8.32 -3.32 9.64 -4 11 C-4.33 10.01 -4.66 9.02 -5 8 C-4.34 8 -3.68 8 -3 8 C-3.0928125 6.8553125 -3.0928125 6.8553125 -3.1875 5.6875 C-3 3 -3 3 -1.5 1.1875 C-1.005 0.795625 -0.51 0.40375 0 0 Z " fill="#242321" transform="translate(72,137)"/>
<path d="M0 0 C0.99 0 1.98 0 3 0 C2.49287967 3.71888239 1.88391785 6.73454239 0 10 C-0.66 10 -1.32 10 -2 10 C-1.67 8.02 -1.34 6.04 -1 4 C-0.34 4 0.32 4 1 4 C0.67 2.68 0.34 1.36 0 0 Z " fill="#241D22" transform="translate(350,101)"/>
<path d="M0 0 C0.33 0 0.66 0 1 0 C1 2.31 1 4.62 1 7 C0.34 7 -0.32 7 -1 7 C-1.33 7.66 -1.66 8.32 -2 9 C-2.66 9 -3.32 9 -4 9 C-4.66 9.66 -5.32 10.32 -6 11 C-6 9.35 -6 7.7 -6 6 C-4.02 6 -2.04 6 0 6 C0 4.02 0 2.04 0 0 Z " fill="#1C151A" transform="translate(297,332)"/>
<path d="M0 0 C0.66 0 1.32 0 2 0 C5.07692308 5.41538462 5.07692308 5.41538462 4.6875 8.375 C4.460625 8.91125 4.23375 9.4475 4 10 C3.34 9.34 2.68 8.68 2 8 C2 6.68 2 5.36 2 4 C1.34 4 0.68 4 0 4 C0 2.68 0 1.36 0 0 Z " fill="#231E23" transform="translate(148,279)"/>
<path d="M0 0 C0.66 0 1.32 0 2 0 C1.63076923 6.4 1.63076923 6.4 -1.5625 9.4375 C-2.7690625 10.2109375 -2.7690625 10.2109375 -4 11 C-3.39301257 6.87248551 -1.96189209 3.6678852 0 0 Z " fill="#231D23" transform="translate(111,261)"/>
<path d="M0 0 C6.4 0.49230769 6.4 0.49230769 9.4375 3.0625 C10.2109375 4.0215625 10.2109375 4.0215625 11 5 C2.28571429 3.14285714 2.28571429 3.14285714 0 0 Z " fill="#211B1F" transform="translate(244,182)"/>
<path d="M0 0 C3.55780196 0.60990891 6.6828589 1.5783681 10 3 C7 5 7 5 3.8125 4.625 C2.884375 4.41875 1.95625 4.2125 1 4 C0.67 2.68 0.34 1.36 0 0 Z " fill="#302F2E" transform="translate(185,158)"/>
<path d="M0 0 C0.33 0.99 0.66 1.98 1 3 C0.0409375 3.1546875 0.0409375 3.1546875 -0.9375 3.3125 C-1.618125 3.539375 -2.29875 3.76625 -3 4 C-3.33 4.99 -3.66 5.98 -4 7 C-4.99 7.33 -5.98 7.66 -7 8 C-6.67 7.01 -6.34 6.02 -6 5 C-6.66 4.34 -7.32 3.68 -8 3 C-2.25 2 -2.25 2 0 2 C0 1.34 0 0.68 0 0 Z " fill="#322E2E" transform="translate(119,128)"/>
<path d="M0 0 C3.3 0 6.6 0 10 0 C9.67 0.99 9.34 1.98 9 3 C6.1875 3.1875 6.1875 3.1875 3 3 C2.01 2.01 1.02 1.02 0 0 Z " fill="#261F26" transform="translate(326,354)"/>
<path d="M0 0 C-0.33 1.65 -0.66 3.3 -1 5 C-1.99 4.34 -2.98 3.68 -4 3 C-4.99 3.99 -5.98 4.98 -7 6 C-7.66 5.67 -8.32 5.34 -9 5 C-4.32258065 0 -4.32258065 0 0 0 Z " fill="#332C32" transform="translate(76,135)"/>
<path d="M0 0 C0.33 0 0.66 0 1 0 C1.12117188 0.61488281 1.24234375 1.22976563 1.3671875 1.86328125 C1.53476562 2.67152344 1.70234375 3.47976563 1.875 4.3125 C2.03742188 5.11300781 2.19984375 5.91351563 2.3671875 6.73828125 C2.94478999 9.25301118 2.94478999 9.25301118 5 12 C4.01 12.33 3.02 12.66 2 13 C0.21590198 9.93753253 -0.22880021 7.77920727 -0.125 4.25 C-0.10695313 3.45078125 -0.08890625 2.6515625 -0.0703125 1.828125 C-0.04710937 1.22484375 -0.02390625 0.6215625 0 0 Z " fill="#252024" transform="translate(317,348)"/>
<path d="M0 0 C1.42944945 2.35438733 2.08661261 3.48032433 1.625 6.25 C1.41875 6.8275 1.2125 7.405 1 8 C-0.65 6.68 -2.3 5.36 -4 4 C-3.67 3.01 -3.34 2.02 -3 1 C-2.67 1.66 -2.34 2.32 -2 3 C-1.34 3 -0.68 3 0 3 C0 2.01 0 1.02 0 0 Z " fill="#201B21" transform="translate(274,342)"/>
<path d="M0 0 C-1.13151761 3.39455284 -2.4287232 4.57997478 -5 7 C-5.5775 7.5775 -6.155 8.155 -6.75 8.75 C-7.36875 9.36875 -7.36875 9.36875 -8 10 C-7.01249428 5.39163999 -5.6899318 0 0 0 Z " fill="#1F171C" transform="translate(220,332)"/>
<path d="M0 0 C0 0.66 0 1.32 0 2 C-2.8125 4.1875 -2.8125 4.1875 -6 6 C-6.99 5.67 -7.98 5.34 -9 5 C-3.375 0 -3.375 0 0 0 Z " fill="#1D171A" transform="translate(331,318)"/>
<path d="M0 0 C0.66 0.33 1.32 0.66 2 1 C1.67 1.66 1.34 2.32 1 3 C1.66 3 2.32 3 3 3 C3 5 3 5 0.625 7.625 C-2 10 -2 10 -4 10 C-3.71125 9.46375 -3.4225 8.9275 -3.125 8.375 C-1.83288192 5.64719516 -0.91441408 2.87387282 0 0 Z " fill="#302F2D" transform="translate(180,151)"/>
<path d="M0 0 C0.8971875 0.309375 0.8971875 0.309375 1.8125 0.625 C0.843125 1.24375 -0.12625 1.8625 -1.125 2.5 C-4.21585362 4.28178846 -4.21585362 4.28178846 -5.1875 6.625 C-5.8475 6.625 -6.5075 6.625 -7.1875 6.625 C-4.6484375 -0.796875 -4.6484375 -0.796875 0 0 Z " fill="#201A22" transform="translate(185.1875,134.375)"/>
<path d="M0 0 C4.22271781 2.53363068 6.78310162 4.56620325 9 9 C4.5937814 7.65365543 2.56922298 5.80625626 0 2 C0 1.34 0 0.68 0 0 Z " fill="#221D20" transform="translate(315,101)"/>
<path d="M0 0 C0.66 0 1.32 0 2 0 C2 0.66 2 1.32 2 2 C3.32 1.67 4.64 1.34 6 1 C6 1.99 6 2.98 6 4 C6.66 4 7.32 4 8 4 C8 4.66 8 5.32 8 6 C2.25 4.125 2.25 4.125 0 3 C0 2.01 0 1.02 0 0 Z " fill="#211C23" transform="translate(364,63)"/>
<path d="M0 0 C-0.33 0.99 -0.66 1.98 -1 3 C-4.0625 4.1875 -4.0625 4.1875 -7 5 C-7 4.01 -7 3.02 -7 2 C-4.35261084 0.5393715 -3.10551666 0 0 0 Z " fill="#221B21" transform="translate(270,426)"/>
<path d="M0 0 C0.33 0 0.66 0 1 0 C1 2.64 1 5.28 1 8 C0.01 8.495 0.01 8.495 -1 9 C-1.625 6.1875 -1.625 6.1875 -2 3 C-1.34 2.01 -0.68 1.02 0 0 Z " fill="#322A30" transform="translate(120,243)"/>
<path d="M0 0 C0.33 0.66 0.66 1.32 1 2 C1.99 2 2.98 2 4 2 C4 3.65 4 5.3 4 7 C3.01 7 2.02 7 1 7 C0.34 5.02 -0.32 3.04 -1 1 C-0.67 0.67 -0.34 0.34 0 0 Z " fill="#302C32" transform="translate(132,218)"/>
<path d="M0 0 C0.66 0 1.32 0 2 0 C2 0.99 2 1.98 2 3 C1.34 3 0.68 3 0 3 C0 4.32 0 5.64 0 7 C-0.66 7 -1.32 7 -2 7 C-2.33 7.66 -2.66 8.32 -3 9 C-2.5020163 5.26512223 -2.12508244 3.18762365 0 0 Z " fill="#261F23" transform="translate(188,165)"/>
<path d="M0 0 C2.64 0 5.28 0 8 0 C8 0.99 8 1.98 8 3 C5.125 3.1875 5.125 3.1875 2 3 C1.34 2.01 0.68 1.02 0 0 Z " fill="#2C2C2C" transform="translate(257,353)"/>
<path d="M0 0 C0.99 0 1.98 0 3 0 C3.66 2.64 4.32 5.28 5 8 C2 7 2 7 0.8125 5.125 C0 3 0 3 0 0 Z " fill="#251F24" transform="translate(153,262)"/>
<path d="M0 0 C0.66 0.99 1.32 1.98 2 3 C1.01 3.99 0.02 4.98 -1 6 C-1 5.34 -1 4.68 -1 4 C-2.32 4.99 -3.64 5.98 -5 7 C-4.67 5.68 -4.34 4.36 -4 3 C-2.68 2.67 -1.36 2.34 0 2 C0 1.34 0 0.68 0 0 Z " fill="#332E31" transform="translate(386,182)"/>
<path d="M0 0 C4.455 0.99 4.455 0.99 9 2 C8.01 2.495 8.01 2.495 7 3 C7 3.66 7 4.32 7 5 C5.35 4.67 3.7 4.34 2 4 C2 3.34 2 2.68 2 2 C1.34 1.34 0.68 0.68 0 0 Z " fill="#2F2F2F" transform="translate(239,155)"/>
<path d="M0 0 C0.33 0.99 0.66 1.98 1 3 C1.66 3 2.32 3 3 3 C3 4.98 3 6.96 3 9 C1.68 8.67 0.36 8.34 -1 8 C-0.67 5.36 -0.34 2.72 0 0 Z " fill="#201E21" transform="translate(244,410)"/>
<path d="M0 0 C0.99 0.495 0.99 0.495 2 1 C2.144375 1.639375 2.28875 2.27875 2.4375 2.9375 C2.86165035 5.38210855 2.86165035 5.38210855 6 7 C4.02 7 2.04 7 0 7 C0 4.69 0 2.38 0 0 Z " fill="#201A1F" transform="translate(291,325)"/>
<path d="M0 0 C0.33 0.66 0.66 1.32 1 2 C1.66 2 2.32 2 3 2 C2.67 3.98 2.34 5.96 2 8 C1.01 7.67 0.02 7.34 -1 7 C-0.67 4.69 -0.34 2.38 0 0 Z " fill="#232023" transform="translate(148,171)"/>
<path d="M0 0 C2.97 0.495 2.97 0.495 6 1 C5.01 1.495 5.01 1.495 4 2 C4 2.66 4 3.32 4 4 C1.03 3.505 1.03 3.505 -2 3 C-1.34 2.01 -0.68 1.02 0 0 Z " fill="#2C2C2C" transform="translate(198,137)"/>
<path d="M0 0 C2.64 0.33 5.28 0.66 8 1 C7.67 1.99 7.34 2.98 7 4 C7.66 4.33 8.32 4.66 9 5 C7.35 4.67 5.7 4.34 4 4 C4 3.01 4 2.02 4 1 C2.68 0.67 1.36 0.34 0 0 Z " fill="#322D33" transform="translate(189,132)"/>
<path d="M0 0 C2.97 0.495 2.97 0.495 6 1 C5.67 1.99 5.34 2.98 5 4 C3.35 3.67 1.7 3.34 0 3 C0 2.01 0 1.02 0 0 Z " fill="#262124" transform="translate(337,118)"/>
<path d="M0 0 C2 1 4 2 6 3 C6 3.66 6 4.32 6 5 C3.03 4.505 3.03 4.505 0 4 C0 2.68 0 1.36 0 0 Z " fill="#1F1A1E" transform="translate(342,109)"/>
<path d="M0 0 C-0.99 2.97 -1.98 5.94 -3 9 C-3.66 7.68 -4.32 6.36 -5 5 C-4.34 4.67 -3.68 4.34 -3 4 C-3.33 3.01 -3.66 2.02 -4 1 C-2 0 -2 0 0 0 Z " fill="#1F1C1F" transform="translate(185,141)"/>
<path d="M0 0 C0.66 0.33 1.32 0.66 2 1 C2.73075648 3.3140622 3.40138258 5.64828869 4 8 C3.01 8 2.02 8 1 8 C0.26919734 6.02253397 -0.39421747 4.01927511 -1 2 C-0.67 1.34 -0.34 0.68 0 0 Z " fill="#241D24" transform="translate(418,51)"/>
<path d="M0 0 C0.33 0 0.66 0 1 0 C0.67 2.97 0.34 5.94 0 9 C-0.66 9 -1.32 9 -2 9 C-1.125 2.25 -1.125 2.25 0 0 Z " fill="#241E23" transform="translate(438,47)"/>
</svg>
